Coordinates
version=1
nRows=7
nColumns=40
inDegrees=yes

Units are S.I. units (second, meters, Newtons, ...)
If the header above contains a line with 'inDegrees', this indicates whether rotational values are in degrees (yes) or radians (no).

endheader
time	pelvis_tilt	pelvis_list	pelvis_rotation	pelvis_tx	pelvis_ty	pelvis_tz	hip_flexion_r	hip_adduction_r	hip_rotation_r	knee_angle_r	knee_angle_r_beta	ankle_angle_r	subtalar_angle_r	mtp_angle_r	hip_flexion_l	hip_adduction_l	hip_rotation_l	knee_angle_l	knee_angle_l_beta	ankle_angle_l	subtalar_angle_l	mtp_angle_l	lumbar_extension	lumbar_bending	lumbar_rotation	arm_flex_r	arm_add_r	arm_rot_r	elbow_flex_r	pro_sup_r	wrist_flex_r	wrist_dev_r	arm_flex_l	arm_add_l	arm_rot_l	elbow_flex_l	pro_sup_l	wrist_flex_l	wrist_dev_l
      7.83300000	    -25.61431537	      4.28675521	      5.01036537	      0.07447957	      1.27636615	     -0.00163714	     90.27498480	     -0.69851174	     15.22509552	     80.45627377	      1.40422688	     -5.85313598	     -9.72927703	      0.00000000	     64.29347136	     -0.23293091	      0.15547168	     76.24800078	      1.33077866	    -17.09555012	    -23.30973641	      0.00000000	    -27.12424571	     -5.16680388	     -0.76921015	     64.10761665	     10.20293446	    -59.05499004	     34.53022310	     80.18030123	      0.00000000	      0.00000000	     59.26478189	     11.79707803	    -42.95253721	     33.09112264	      5.74446146	      0.00000000	      0.00000000
      7.85000000	    -25.68140340	      4.07235233	      5.62755074	      0.07429277	      1.27647330	     -0.00265600	     87.20696784	     -2.07167517	     13.87249839	     75.19739132	      1.31244207	     -6.54529569	    -10.51771457	      0.00000000	     67.04916542	      0.20571940	      1.14184539	     81.29934650	      1.41894128	    -17.16885500	    -23.13889478	      0.00000000	    -27.06707910	     -4.86732482	     -1.14353065	     64.04047194	     10.00141429	    -58.97136920	     34.55310261	     79.98446776	      0.00000000	      0.00000000	     59.31479554	     11.99675392	    -42.94847173	     33.14302707	      6.01231893	      0.00000000	      0.00000000
      7.86700000	    -25.78662374	      3.83528518	      6.33089622	      0.07404066	      1.27645516	     -0.00373529	     83.92594322	     -3.45929275	     12.14269429	     69.93252980	      1.22055290	     -7.77432795	    -12.00202106	      0.00000000	     69.99881935	      0.68474122	      2.02073697	     85.97162598	      1.50048794	    -17.46563344	    -23.11050841	      0.00000000	    -26.99115975	     -4.61467974	     -1.59519760	     64.00024832	      9.84265214	    -59.08525791	     34.53173862	     79.76257844	      0.00000000	      0.00000000	     59.38959462	     12.17771947	    -42.80659527	     33.19095536	      6.27798383	      0.00000000	      0.00000000
      7.88300000	    -25.98186587	      3.45035414	      6.91153819	      0.07379900	      1.27620095	     -0.00453387	     80.41659574	     -4.52494812	      9.96603609	     64.52972043	      1.12625609	     -9.47973691	    -14.80152235	      0.00000000	     73.23065331	      0.95662120	      2.84732642	     90.38665946	      1.57754481	    -17.90855224	    -23.22586955	      0.00000000	    -26.77136749	     -4.36306172	     -1.79515406	     63.90774855	      9.66972132	    -59.49030760	     34.59426103	     79.95919968	      0.00000000	      0.00000000	     59.42896300	     12.37224410	    -42.39134173	     33.19081723	      5.82660935	      0.00000000	      0.00000000
      7.90000000	    -26.16424171	      3.34442726	      7.81473221	      0.07350425	      1.27612923	     -0.00599731	     76.90568688	     -6.00359291	      8.25190833	     59.46378355	      1.03783881	    -11.16429485	    -15.25929676	      0.00000000	     76.40294592	      1.75338877	      3.39799059	     94.32329791	      1.64625211	    -18.00641336	    -23.51204636	      0.00000000	    -26.60368933	     -4.25189974	     -2.44573764	     63.72612799	      9.49036551	    -59.77284254	     34.61213825	     79.84782429	      0.00000000	      0.00000000	     59.46840933	     12.52787722	    -42.11539981	     33.14265099	      5.94453274	      0.00000000	      0.00000000
      7.91700000	    -26.39557824	      2.87571608	      8.58991483	      0.07298149	      1.27586654	     -0.00703303	     73.36600155	     -6.96793083	      6.57123049	     54.78725846	      0.95621805	    -12.80372622	    -15.86614222	      0.00000000	     79.79019320	      2.29201053	      4.21190701	     97.97384797	      1.70996623	    -17.76796366	    -23.60789185	      0.00000000	    -26.25268859	     -3.89420450	     -2.83655602	     63.51781278	      9.28155137	    -60.23193733	     34.51904374	     79.99341972	      0.00000000	      0.00000000	     59.37913184	     12.69592742	    -41.74813715	     33.12427918	      5.64312283	      0.00000000	      0.00000000
      7.93300000	    -26.69390066	      2.77445129	      9.41572780	      0.07240525	      1.27559465	     -0.00824404	     69.94429951	     -8.03114849	      5.59227885	     50.51019995	      0.88156930	    -14.63911055	    -15.24044706	      0.00000000	     83.18652732	      3.03635095	      4.50773987	    101.18572000	      1.76602397	    -17.01824918	    -23.86305442	      0.00000000	    -25.87136356	     -3.93212375	     -3.43877281	     63.19129049	      9.03815007	    -60.52506497	     34.45960803	     80.02762451	      0.00000000	      0.00000000	     59.28812220	     12.84756256	    -41.50490088	     33.06027554	      5.60374153	      0.00000000	      0.00000000
